<svg width="32" height="32" viewBox="0 0 32 32" fill="none" xmlns="http://www.w3.org/2000/svg">
<path d="M16 32C24.8366 32 32 24.8366 32 16C32 7.16344 24.8366 0 16 0C7.16344 0 0 7.16344 0 16C0 24.8366 7.16344 32 16 32Z" fill="#E1306C"/>
<path fill-rule="evenodd" clip-rule="evenodd" d="M25.5 16C25.5 18.6 25.5 18.9 25.4 19.9C25.4 20.9 25.2 21.6 25 22.2C24.8 22.9 24.5 23.3 23.9 23.9C23.4 24.4 22.8 24.8 22.2 25C21.6 25.2 20.9 25.3 19.9 25.4C18.9 25.5 18.6 25.5 16 25.5C13.4 25.5 13.1 25.5 12.1 25.4C11.1 25.4 10.4 25.2 9.79999 25C9.09999 24.8 8.70001 24.5 8.10001 23.9C7.60001 23.4 7.2 22.8 7 22.2C6.8 21.6 6.70001 20.9 6.60001 19.9C6.50001 18.9 6.5 18.6 6.5 16C6.5 13.4 6.50001 13.1 6.60001 12.1C6.60001 11.1 6.8 10.4 7 9.8C7.2 9.1 7.50001 8.7 8.10001 8.1C8.60001 7.6 9.19999 7.2 9.79999 7C10.4 6.8 11.1 6.7 12.1 6.6C13.1 6.5 13.4 6.5 16 6.5C18.6 6.5 18.9 6.5 19.9 6.6C20.9 6.6 21.6 6.8 22.2 7C22.9 7.2 23.3 7.5 23.9 8.1C24.4 8.6 24.8 9.2 25 9.8C25.2 10.4 25.3 11.1 25.4 12.1C25.5 13.1 25.5 13.4 25.5 16ZM23.9 16C23.9 13.4 23.9 13.1 23.8 12.1C23.8 11.2 23.6 10.6 23.5 10.3C23.4 9.9 23.1 9.5 22.8 9.2C22.4 8.9 22.1 8.7 21.7 8.5C21.3 8.4 20.8 8.3 19.9 8.2C18.8 8.1 18.6 8.1 16 8.1C13.4 8.1 13.1 8.1 12.1 8.2C11.2 8.2 10.6 8.4 10.3 8.5C9.89999 8.6 9.50001 8.9 9.20001 9.2C8.90001 9.6 8.7 9.9 8.5 10.3C8.4 10.7 8.30001 11.2 8.20001 12.1C8.10001 13.2 8.10001 13.4 8.10001 16C8.10001 18.6 8.10001 18.9 8.20001 19.9C8.20001 20.8 8.4 21.4 8.5 21.7C8.6 22.1 8.90001 22.5 9.20001 22.8C9.60001 23.1 9.89999 23.3 10.3 23.5C10.7 23.6 11.2 23.7 12.1 23.8C13.2 23.9 13.4 23.9 16 23.9C18.6 23.9 18.9 23.9 19.9 23.8C20.8 23.8 21.4 23.6 21.7 23.5C22.1 23.4 22.5 23.1 22.8 22.8C23.1 22.4 23.3 22.1 23.5 21.7C23.6 21.3 23.7 20.8 23.8 19.9C23.8 18.9 23.8 18.6 23.9 16Z" fill="white"/>
<path fill-rule="evenodd" clip-rule="evenodd" d="M20.9 16C20.9 18.7 18.7 20.9 16 20.9C13.3 20.9 11.1 18.7 11.1 16C11.1 13.3 13.3 11.1 16 11.1C18.7 11.1 20.9 13.3 20.9 16ZM19.2 16C19.2 14.2 17.8 12.8 16 12.8C14.2 12.8 12.8 14.2 12.8 16C12.8 17.8 14.2 19.2 16 19.2C17.8 19.2 19.2 17.8 19.2 16Z" fill="white"/>
<path d="M21.1 12.1C21.7627 12.1 22.3 11.5627 22.3 10.9C22.3 10.2373 21.7627 9.7 21.1 9.7C20.4373 9.7 19.9 10.2373 19.9 10.9C19.9 11.5627 20.4373 12.1 21.1 12.1Z" fill="white"/>
</svg>
