<svg width="33" height="32" viewBox="0 0 33 32" fill="none" xmlns="http://www.w3.org/2000/svg">
<path d="M16.3019 32C25.3052 32 32.6038 24.8366 32.6038 16C32.6038 7.16344 25.3052 0 16.3019 0C7.2986 0 0 7.16344 0 16C0 24.8366 7.2986 32 16.3019 32Z" fill="#FF5700"/>
<path fill-rule="evenodd" clip-rule="evenodd" d="M25.6755 17.3C25.7774 17.5 25.7774 17.8 25.7774 18C25.7774 21.6 21.4981 24.5 16.3019 24.5C11.1057 24.5 6.82642 21.6 6.82642 18C6.82642 17.8 6.92831 17.5 6.92831 17.3C6.11321 17 5.50189 16.1 5.50189 15.2C5.50189 13.9 6.52076 12.9 7.84529 12.9C8.45661 12.9 9.06793 13.2 9.47548 13.6C11.1057 12.4 13.3472 11.7 15.8943 11.6L17.117 6C17.117 5.9 17.2189 5.8 17.3208 5.7C17.4226 5.6 17.5245 5.6 17.6264 5.6L21.6 6.4C21.9057 5.9 22.4151 5.5 23.1283 5.5C24.1472 5.5 24.8604 6.2 24.8604 7.2C24.8604 8.2 24.0453 8.9 23.1283 8.9C22.2113 8.9 21.3962 8.2 21.3962 7.3L17.8302 6.6L16.7094 11.6C19.1547 11.7 21.3962 12.4 23.0264 13.6C23.434 13.2 24.0453 12.9 24.6566 12.9C25.9811 12.9 27 13.9 27 15.2C27 16.2 26.3887 17 25.6755 17.3ZM12.4302 18.6C13.4491 18.6 14.1623 17.8 14.1623 16.9C14.1623 15.9 13.3472 15.2 12.4302 15.2C11.4113 15.2 10.6981 16 10.6981 16.9C10.6981 17.8 11.4113 18.5 12.4302 18.6ZM19.9698 20.7C19.766 20.5 19.5623 20.5 19.3585 20.7C18.6453 21.4 17.0151 21.7 15.9962 21.7C14.9774 21.7 13.3472 21.4 12.634 20.7C12.4302 20.5 12.2264 20.5 12.0226 20.7C11.8189 20.9 11.8189 21.1 12.0226 21.3C13.2453 22.4 15.4868 22.5 16.0981 22.5C16.8113 22.5 19.0528 22.4 20.1736 21.3C20.2755 21.1 20.2755 20.8 19.9698 20.7ZM21.6 16.8C21.6 15.8 20.7849 15.1 19.8679 15.1C18.8491 15.1 18.1359 15.9 18.1359 16.8C18.1359 17.8 18.9509 18.5 19.8679 18.5C20.7849 18.5 21.4981 17.8 21.6 16.8Z" fill="white"/>
</svg>
