<svg width="32" height="32" viewBox="0 0 32 32" fill="none" xmlns="http://www.w3.org/2000/svg">
<path d="M16 32C24.8366 32 32 24.8366 32 16C32 7.16344 24.8366 0 16 0C7.16344 0 0 7.16344 0 16C0 24.8366 7.16344 32 16 32Z" fill="#1DA1F2"/>
<path d="M7.3 22.5C7.6 22.6 7.9 22.6 8.2 22.6C10 22.6 11.7 22 13 21C11.3 20.9 9.89999 19.8 9.39999 18.3C9.59999 18.4 9.90001 18.4 10.1 18.4C10.4 18.4 10.8 18.4 11.1 18.3C9.30001 17.9 8 16.4 8 14.5C8.5 14.8 9.1 15 9.7 15C8.7 14.3 8 13.1 8 11.8C8 11.1 8.2 10.5 8.5 9.9C10.5 12.2 13.3 13.7 16.5 13.9C16.4 13.6 16.4 13.3 16.4 13C16.4 10.8 18.2 9.1 20.3 9.1C21.4 9.1 22.4 9.5 23.1 10.3C23.9 10.2 24.8 9.8 25.5 9.4C25.2 10.3 24.6 11 23.8 11.5C24.6 11.4 25.3 11.2 26 10.9C25.5 11.7 24.9 12.4 24.1 12.9C24.1 13.1 24.1 13.2 24.1 13.4C24.1 18.5 20.2 24.4 13.1 24.4C10.9 24.4 8.9 23.8 7.3 22.5Z" fill="#F9F9F9"/>
</svg>
