<svg width="32" height="32" viewBox="0 0 32 32" fill="none" xmlns="http://www.w3.org/2000/svg">
<path d="M16 32C24.8366 32 32 24.8366 32 16C32 7.16344 24.8366 0 16 0C7.16344 0 0 7.16344 0 16C0 24.8366 7.16344 32 16 32Z" fill="#FF0000"/>
<path fill-rule="evenodd" clip-rule="evenodd" d="M26.8 16.5C26.8 16.5 26.8 20 26.4 21.7C26.2 22.6 25.5 23.4 24.6 23.6C23 24 16.4 24 16.4 24C16.4 24 9.90001 24 8.20001 23.6C7.40001 23.3 6.69999 22.6 6.39999 21.7C5.99999 20 6 16.5 6 16.5C6 16.5 6 13 6.5 11.3C6.7 10.4 7.39999 9.6 8.29999 9.4C9.89999 9 16.5 9 16.5 9C16.5 9 23.1 9 24.8 9.4C25.6 9.7 26.3 10.4 26.6 11.3C27 13 26.8 16.5 26.8 16.5ZM19.8 16.5L14.3 13.3V19.7L19.8 16.5Z" fill="white"/>
</svg>
